<?xml version="1.0"?>
<svg xmlns="http://www.w3.org/2000/svg" xmlns:xlink="http://www.w3.org/1999/xlink" version="1.1" width="340px" height="340px" viewBox="0 0 340 340"><rect x="0" y="0" width="340" height="340" fill="#ffffff" fill-opacity="1"/><path fill="#000000" fill-opacity="1" d="M11,11L53,11L53,17L11,17ZM83,11L101,11L101,17L83,17ZM107,11L113,11L113,17L107,17ZM125,11L149,11L149,17L125,17ZM155,11L161,11L161,17L155,17ZM167,11L191,11L191,17L167,17ZM203,11L209,11L209,17L203,17ZM227,11L233,11L233,17L227,17ZM239,11L245,11L245,17L239,17ZM257,11L269,11L269,17L257,17ZM287,11L329,11L329,17L287,17ZM11,17L17,17L17,23L11,23ZM47,17L53,17L53,23L47,23ZM59,17L89,17L89,23L59,23ZM107,17L113,17L113,23L107,23ZM125,17L131,17L131,23L125,23ZM143,17L149,17L149,23L143,23ZM155,17L173,17L173,23L155,23ZM197,17L203,17L203,23L197,23ZM209,17L215,17L215,23L209,23ZM221,17L227,17L227,23L221,23ZM233,17L239,17L239,23L233,23ZM251,17L257,17L257,23L251,23ZM263,17L275,17L275,23L263,23ZM287,17L293,17L293,23L287,23ZM323,17L329,17L329,23L323,23ZM11,23L17,23L17,29L11,29ZM23,23L41,23L41,29L23,29ZM47,23L53,23L53,29L47,29ZM59,23L71,23L71,29L59,29ZM89,23L101,23L101,29L89,29ZM107,23L131,23L131,29L107,29ZM149,23L161,23L161,29L149,29ZM179,23L185,23L185,29L179,29ZM191,23L197,23L197,29L191,29ZM203,23L221,23L221,29L203,29ZM233,23L239,23L239,29L233,29ZM251,23L263,23L263,29L251,29ZM269,23L275,23L275,29L269,29ZM287,23L293,23L293,29L287,29ZM299,23L317,23L317,29L299,29ZM323,23L329,23L329,29L323,29ZM11,29L17,29L17,35L11,35ZM23,29L41,29L41,35L23,35ZM47,29L53,29L53,35L47,35ZM71,29L83,29L83,35L71,35ZM89,29L95,29L95,35L89,35ZM101,29L107,29L107,35L101,35ZM113,29L119,29L119,35L113,35ZM143,29L155,29L155,35L143,35ZM173,29L179,29L179,35L173,35ZM191,29L203,29L203,35L191,35ZM221,29L245,29L245,35L221,35ZM257,29L269,29L269,35L257,35ZM275,29L281,29L281,35L275,35ZM287,29L293,29L293,35L287,35ZM299,29L317,29L317,35L299,35ZM323,29L329,29L329,35L323,35ZM11,35L17,35L17,41L11,41ZM23,35L41,35L41,41L23,41ZM47,35L53,35L53,41L47,41ZM59,35L71,35L71,41L59,41ZM77,35L95,35L95,41L77,41ZM113,35L119,35L119,41L113,41ZM137,35L197,35L197,41L137,41ZM203,35L215,35L215,41L203,41ZM221,35L227,35L227,41L221,41ZM239,35L245,35L245,41L239,41ZM251,35L257,35L257,41L251,41ZM263,35L269,35L269,41L263,41ZM287,35L293,35L293,41L287,41ZM299,35L317,35L317,41L299,41ZM323,35L329,35L329,41L323,41ZM11,41L17,41L17,47L11,47ZM47,41L53,41L53,47L47,47ZM59,41L83,41L83,47L59,47ZM101,41L119,41L119,47L101,47ZM137,41L143,41L143,47L137,47ZM149,41L161,41L161,47L149,47ZM179,41L191,41L191,47L179,47ZM203,41L215,41L215,47L203,47ZM233,41L239,41L239,47L233,47ZM263,41L269,41L269,47L263,47ZM287,41L293,41L293,47L287,47ZM323,41L329,41L329,47L323,47ZM11,47L53,47L53,53L11,53ZM59,47L65,47L65,53L59,53ZM71,47L77,47L77,53L71,53ZM83,47L89,47L89,53L83,53ZM95,47L101,47L101,53L95,53ZM107,47L113,47L113,53L107,53ZM119,47L125,47L125,53L119,53ZM131,47L137,47L137,53L131,53ZM143,47L149,47L149,53L143,53ZM155,47L161,47L161,53L155,53ZM167,47L173,47L173,53L167,53ZM179,47L185,47L185,53L179,53ZM191,47L197,47L197,53L191,53ZM203,47L209,47L209,53L203,53ZM215,47L221,47L221,53L215,53ZM227,47L233,47L233,53L227,53ZM239,47L245,47L245,53L239,53ZM251,47L257,47L257,53L251,53ZM263,47L269,47L269,53L263,53ZM275,47L281,47L281,53L275,53ZM287,47L329,47L329,53L287,53ZM59,53L71,53L71,59L59,59ZM77,53L89,53L89,59L77,59ZM95,53L119,53L119,59L95,59ZM149,53L161,53L161,59L149,59ZM179,53L185,53L185,59L179,59ZM215,53L221,53L221,59L215,59ZM233,53L239,53L239,59L233,59ZM251,53L263,53L263,59L251,59ZM269,53L275,53L275,59L269,59ZM11,59L23,59L23,65L11,65ZM29,59L35,59L35,65L29,65ZM47,59L59,59L59,65L47,65ZM65,59L71,59L71,65L65,65ZM83,59L101,59L101,65L83,65ZM107,59L125,59L125,65L107,65ZM131,59L137,59L137,65L131,65ZM143,59L149,59L149,65L143,65ZM155,59L191,59L191,65L155,65ZM215,59L221,59L221,65L215,65ZM239,59L251,59L251,65L239,65ZM257,59L263,59L263,65L257,65ZM269,59L281,59L281,65L269,65ZM287,59L305,59L305,65L287,65ZM311,59L323,59L323,65L311,65ZM35,65L41,65L41,71L35,71ZM53,65L65,65L65,71L53,71ZM77,65L83,65L83,71L77,71ZM89,65L95,65L95,71L89,71ZM107,65L113,65L113,71L107,71ZM119,65L143,65L143,71L119,71ZM161,65L167,65L167,71L161,71ZM173,65L179,65L179,71L173,71ZM197,65L209,65L209,71L197,71ZM215,65L227,65L227,71L215,71ZM233,65L239,65L239,71L233,71ZM245,65L257,65L257,71L245,71ZM263,65L275,65L275,71L263,71ZM281,65L299,65L299,71L281,71ZM323,65L329,65L329,71L323,71ZM11,71L53,71L53,77L11,77ZM65,71L77,71L77,77L65,77ZM83,71L101,71L101,77L83,77ZM107,71L125,71L125,77L107,77ZM137,71L143,71L143,77L137,77ZM149,71L155,71L155,77L149,77ZM161,71L173,71L173,77L161,77ZM185,71L209,71L209,77L185,77ZM215,71L221,71L221,77L215,77ZM227,71L233,71L233,77L227,77ZM245,71L251,71L251,77L245,77ZM287,71L293,71L293,77L287,77ZM299,71L323,71L323,77L299,77ZM17,77L23,77L23,83L17,83ZM35,77L41,77L41,83L35,83ZM53,77L65,77L65,83L53,83ZM71,77L77,77L77,83L71,83ZM83,77L89,77L89,83L83,83ZM107,77L113,77L113,83L107,83ZM125,77L137,77L137,83L125,83ZM143,77L149,77L149,83L143,83ZM155,77L167,77L167,83L155,83ZM173,77L191,77L191,83L173,83ZM227,77L233,77L233,83L227,83ZM239,77L245,77L245,83L239,83ZM257,77L263,77L263,83L257,83ZM269,77L281,77L281,83L269,83ZM293,77L299,77L299,83L293,83ZM317,77L323,77L323,83L317,83ZM23,83L29,83L29,89L23,89ZM35,83L41,83L41,89L35,89ZM47,83L59,83L59,89L47,89ZM71,83L77,83L77,89L71,89ZM95,83L101,83L101,89L95,89ZM113,83L155,83L155,89L113,89ZM179,83L185,83L185,89L179,89ZM209,83L221,83L221,89L209,89ZM227,83L233,83L233,89L227,89ZM245,83L257,83L257,89L245,89ZM287,83L299,83L299,89L287,89ZM305,83L329,83L329,89L305,89ZM17,89L29,89L29,95L17,95ZM41,89L47,89L47,95L41,95ZM65,89L83,89L83,95L65,95ZM95,89L113,89L113,95L95,95ZM125,89L131,89L131,95L125,95ZM149,89L155,89L155,95L149,95ZM197,89L215,89L215,95L197,95ZM233,89L251,89L251,95L233,95ZM257,89L269,89L269,95L257,95ZM275,89L287,89L287,95L275,95ZM299,89L311,89L311,95L299,95ZM323,89L329,89L329,95L323,95ZM11,95L17,95L17,101L11,101ZM47,95L53,95L53,101L47,101ZM59,95L71,95L71,101L59,101ZM101,95L107,95L107,101L101,101ZM119,95L125,95L125,101L119,101ZM143,95L155,95L155,101L143,101ZM161,95L173,95L173,101L161,101ZM191,95L197,95L197,101L191,101ZM209,95L221,95L221,101L209,101ZM227,95L233,95L233,101L227,101ZM245,95L305,95L305,101L245,101ZM317,95L329,95L329,101L317,101ZM11,101L17,101L17,107L11,107ZM59,101L77,101L77,107L59,107ZM83,101L89,101L89,107L83,107ZM101,101L107,101L107,107L101,107ZM113,101L119,101L119,107L113,107ZM143,101L149,101L149,107L143,107ZM161,101L167,101L167,107L161,107ZM179,101L185,101L185,107L179,107ZM209,101L215,101L215,107L209,107ZM227,101L233,101L233,107L227,107ZM245,101L263,101L263,107L245,107ZM269,101L275,101L275,107L269,107ZM305,101L323,101L323,107L305,107ZM41,107L53,107L53,113L41,113ZM71,107L77,107L77,113L71,113ZM89,107L107,107L107,113L89,113ZM119,107L137,107L137,113L119,113ZM155,107L167,107L167,113L155,113ZM203,107L239,107L239,113L203,113ZM257,107L263,107L263,113L257,113ZM269,107L275,107L275,113L269,113ZM281,107L287,107L287,113L281,113ZM293,107L299,107L299,113L293,113ZM311,107L323,107L323,113L311,113ZM11,113L17,113L17,119L11,119ZM23,113L29,113L29,119L23,119ZM41,113L47,113L47,119L41,119ZM53,113L89,113L89,119L53,119ZM95,113L107,113L107,119L95,119ZM113,113L119,113L119,119L113,119ZM131,113L143,113L143,119L131,119ZM149,113L155,113L155,119L149,119ZM167,113L173,113L173,119L167,119ZM185,113L191,113L191,119L185,119ZM197,113L203,113L203,119L197,119ZM209,113L239,113L239,119L209,119ZM251,113L257,113L257,119L251,119ZM269,113L275,113L275,119L269,119ZM311,113L317,113L317,119L311,119ZM29,119L35,119L35,125L29,125ZM41,119L65,119L65,125L41,125ZM95,119L125,119L125,125L95,125ZM131,119L137,119L137,125L131,125ZM143,119L155,119L155,125L143,125ZM167,119L185,119L185,125L167,125ZM191,119L209,119L209,125L191,125ZM221,119L257,119L257,125L221,125ZM263,119L275,119L275,125L263,125ZM299,119L305,119L305,125L299,125ZM311,119L329,119L329,125L311,125ZM11,125L23,125L23,131L11,131ZM29,125L41,125L41,131L29,131ZM59,125L77,125L77,131L59,131ZM89,125L119,125L119,131L89,131ZM125,125L131,125L131,131L125,131ZM137,125L179,125L179,131L137,131ZM185,125L191,125L191,131L185,131ZM197,125L209,125L209,131L197,131ZM215,125L227,125L227,131L215,131ZM233,125L239,125L239,131L233,131ZM251,125L257,125L257,131L251,131ZM287,125L293,125L293,131L287,131ZM317,125L329,125L329,131L317,131ZM11,131L29,131L29,137L11,137ZM35,131L41,131L41,137L35,137ZM47,131L71,131L71,137L47,137ZM83,131L89,131L89,137L83,137ZM137,131L143,131L143,137L137,137ZM161,131L191,131L191,137L161,137ZM203,131L221,131L221,137L203,137ZM227,131L233,131L233,137L227,137ZM239,131L251,131L251,137L239,137ZM257,131L263,131L263,137L257,137ZM287,131L293,131L293,137L287,137ZM299,131L311,131L311,137L299,137ZM317,131L329,131L329,137L317,137ZM23,137L29,137L29,143L23,143ZM35,137L47,137L47,143L35,143ZM53,137L77,137L77,143L53,143ZM89,137L107,137L107,143L89,143ZM113,137L119,137L119,143L113,143ZM125,137L131,137L131,143L125,143ZM149,137L155,137L155,143L149,143ZM161,137L167,137L167,143L161,143ZM179,137L191,137L191,143L179,143ZM203,137L215,137L215,143L203,143ZM221,137L227,137L227,143L221,143ZM239,137L263,137L263,143L239,143ZM287,137L299,137L299,143L287,143ZM317,137L329,137L329,143L317,143ZM11,143L23,143L23,149L11,149ZM41,143L53,143L53,149L41,149ZM59,143L65,143L65,149L59,149ZM71,143L89,143L89,149L71,149ZM101,143L125,143L125,149L101,149ZM131,143L137,143L137,149L131,149ZM155,143L161,143L161,149L155,149ZM179,143L185,143L185,149L179,149ZM191,143L209,143L209,149L191,149ZM221,143L233,143L233,149L221,149ZM245,143L251,143L251,149L245,149ZM257,143L269,143L269,149L257,149ZM275,143L281,143L281,149L275,149ZM287,143L317,143L317,149L287,149ZM323,143L329,143L329,149L323,149ZM11,149L41,149L41,155L11,155ZM53,149L65,149L65,155L53,155ZM71,149L83,149L83,155L71,155ZM89,149L95,149L95,155L89,155ZM101,149L107,149L107,155L101,155ZM113,149L119,149L119,155L113,155ZM131,149L137,149L137,155L131,155ZM143,149L155,149L155,155L143,155ZM161,149L167,149L167,155L161,155ZM179,149L191,149L191,155L179,155ZM203,149L209,149L209,155L203,155ZM221,149L233,149L233,155L221,155ZM239,149L245,149L245,155L239,155ZM275,149L281,149L281,155L275,155ZM317,149L323,149L323,155L317,155ZM11,155L29,155L29,161L11,161ZM35,155L65,155L65,161L35,161ZM77,155L83,155L83,161L77,161ZM89,155L95,155L95,161L89,161ZM107,155L113,155L113,161L107,161ZM119,155L125,155L125,161L119,161ZM143,155L149,155L149,161L143,161ZM155,155L185,155L185,161L155,161ZM191,155L197,155L197,161L191,161ZM209,155L227,155L227,161L209,161ZM251,155L257,155L257,161L251,161ZM263,155L269,155L269,161L263,161ZM275,155L305,155L305,161L275,161ZM323,155L329,155L329,161L323,161ZM35,161L41,161L41,167L35,167ZM59,161L65,161L65,167L59,167ZM71,161L89,161L89,167L71,167ZM113,161L149,161L149,167L113,167ZM155,161L161,161L161,167L155,167ZM179,161L185,161L185,167L179,167ZM203,161L239,161L239,167L203,167ZM245,161L251,161L251,167L245,167ZM263,161L281,161L281,167L263,167ZM299,161L311,161L311,167L299,167ZM317,161L323,161L323,167L317,167ZM17,167L23,167L23,173L17,173ZM29,167L41,167L41,173L29,173ZM47,167L53,167L53,173L47,173ZM59,167L71,167L71,173L59,173ZM77,167L83,167L83,173L77,173ZM119,167L125,167L125,173L119,173ZM143,167L149,167L149,173L143,173ZM155,167L161,167L161,173L155,173ZM167,167L173,167L173,173L167,173ZM179,167L191,167L191,173L179,173ZM197,167L203,167L203,173L197,173ZM215,167L221,167L221,173L215,173ZM227,167L239,167L239,173L227,173ZM245,167L257,167L257,173L245,173ZM263,167L281,167L281,173L263,173ZM287,167L293,167L293,173L287,173ZM299,167L305,167L305,173L299,173ZM323,167L329,167L329,173L323,173ZM11,173L17,173L17,179L11,179ZM23,173L29,173L29,179L23,179ZM35,173L41,173L41,179L35,179ZM59,173L83,173L83,179L59,179ZM89,173L101,173L101,179L89,179ZM107,173L119,173L119,179L107,179ZM137,173L143,173L143,179L137,179ZM149,173L161,173L161,179L149,179ZM179,173L185,173L185,179L179,179ZM197,173L209,173L209,179L197,179ZM245,173L251,173L251,179L245,179ZM275,173L281,173L281,179L275,179ZM299,173L323,173L323,179L299,179ZM17,179L23,179L23,185L17,185ZM35,179L71,179L71,185L35,185ZM89,179L101,179L101,185L89,185ZM113,179L119,179L119,185L113,185ZM131,179L137,179L137,185L131,185ZM143,179L185,179L185,185L143,185ZM191,179L203,179L203,185L191,185ZM227,179L233,179L233,185L227,185ZM257,179L263,179L263,185L257,185ZM269,179L305,179L305,185L269,185ZM311,179L323,179L323,185L311,185ZM11,185L17,185L17,191L11,191ZM23,185L29,185L29,191L23,191ZM41,185L47,185L47,191L41,191ZM53,185L59,185L59,191L53,191ZM71,185L107,185L107,191L71,191ZM125,185L131,185L131,191L125,191ZM137,185L155,185L155,191L137,191ZM173,185L179,185L179,191L173,191ZM185,185L191,185L191,191L185,191ZM239,185L251,185L251,191L239,191ZM269,185L275,185L275,191L269,191ZM281,185L287,185L287,191L281,191ZM293,185L299,185L299,191L293,191ZM305,185L317,185L317,191L305,191ZM11,191L17,191L17,197L11,197ZM47,191L53,191L53,197L47,197ZM77,191L83,191L83,197L77,197ZM95,191L101,191L101,197L95,197ZM113,191L137,191L137,197L113,197ZM143,191L149,191L149,197L143,197ZM161,191L173,191L173,197L161,197ZM179,191L197,191L197,197L179,197ZM203,191L239,191L239,197L203,197ZM245,191L257,191L257,197L245,197ZM281,191L293,191L293,197L281,197ZM299,191L311,191L311,197L299,197ZM317,191L323,191L323,197L317,197ZM23,197L29,197L29,203L23,203ZM41,197L47,197L47,203L41,203ZM53,197L59,197L59,203L53,203ZM71,197L95,197L95,203L71,203ZM101,197L119,197L119,203L101,203ZM125,197L131,197L131,203L125,203ZM155,197L167,197L167,203L155,203ZM197,197L209,197L209,203L197,203ZM215,197L227,197L227,203L215,203ZM245,197L263,197L263,203L245,203ZM275,197L281,197L281,203L275,203ZM287,197L293,197L293,203L287,203ZM311,197L329,197L329,203L311,203ZM11,203L17,203L17,209L11,209ZM35,203L59,203L59,209L35,209ZM65,203L71,203L71,209L65,209ZM83,203L89,203L89,209L83,209ZM101,203L113,203L113,209L101,209ZM119,203L131,203L131,209L119,209ZM149,203L155,203L155,209L149,209ZM185,203L191,203L191,209L185,209ZM239,203L245,203L245,209L239,209ZM257,203L269,203L269,209L257,209ZM281,203L305,203L305,209L281,209ZM311,203L317,203L317,209L311,209ZM323,203L329,203L329,209L323,209ZM11,209L23,209L23,215L11,215ZM29,209L35,209L35,215L29,215ZM41,209L47,209L47,215L41,215ZM53,209L65,209L65,215L53,215ZM71,209L77,209L77,215L71,215ZM101,209L107,209L107,215L101,215ZM113,209L119,209L119,215L113,215ZM143,209L173,209L173,215L143,215ZM191,209L239,209L239,215L191,215ZM245,209L281,209L281,215L245,215ZM293,209L299,209L299,215L293,215ZM29,215L35,215L35,221L29,221ZM41,215L53,215L53,221L41,221ZM65,215L71,215L71,221L65,221ZM83,215L107,215L107,221L83,221ZM119,215L143,215L143,221L119,221ZM155,215L161,215L161,221L155,221ZM167,215L185,215L185,221L167,221ZM191,215L197,215L197,221L191,221ZM203,215L209,215L209,221L203,221ZM221,215L251,215L251,221L221,221ZM269,215L275,215L275,221L269,221ZM281,215L287,215L287,221L281,221ZM293,215L317,215L317,221L293,221ZM323,215L329,215L329,221L323,221ZM23,221L35,221L35,227L23,227ZM77,221L89,221L89,227L77,227ZM101,221L107,221L107,227L101,227ZM113,221L125,221L125,227L113,227ZM131,221L137,221L137,227L131,227ZM149,221L161,221L161,227L149,227ZM167,221L191,221L191,227L167,227ZM209,221L215,221L215,227L209,227ZM227,221L245,221L245,227L227,227ZM257,221L263,221L263,227L257,227ZM281,221L287,221L287,227L281,227ZM293,221L299,221L299,227L293,227ZM23,227L29,227L29,233L23,233ZM47,227L59,227L59,233L47,233ZM65,227L71,227L71,233L65,233ZM77,227L83,227L83,233L77,233ZM95,227L101,227L101,233L95,233ZM131,227L149,227L149,233L131,233ZM161,227L179,227L179,233L161,233ZM185,227L191,227L191,233L185,233ZM209,227L215,227L215,233L209,233ZM245,227L257,227L257,233L245,233ZM269,227L293,227L293,233L269,233ZM311,227L323,227L323,233L311,233ZM11,233L17,233L17,239L11,239ZM29,233L35,233L35,239L29,239ZM41,233L47,233L47,239L41,239ZM83,233L89,233L89,239L83,239ZM95,233L101,233L101,239L95,239ZM107,233L131,233L131,239L107,239ZM137,233L155,233L155,239L137,239ZM173,233L197,233L197,239L173,239ZM221,233L227,233L227,239L221,239ZM233,233L251,233L251,239L233,239ZM263,233L269,233L269,239L263,239ZM275,233L281,233L281,239L275,239ZM287,233L299,233L299,239L287,239ZM305,233L311,233L311,239L305,239ZM317,233L323,233L323,239L317,239ZM17,239L29,239L29,245L17,245ZM47,239L53,239L53,245L47,245ZM65,239L71,239L71,245L65,245ZM83,239L107,239L107,245L83,245ZM113,239L131,239L131,245L113,245ZM137,239L149,239L149,245L137,245ZM155,239L167,239L167,245L155,245ZM179,239L203,239L203,245L179,245ZM209,239L233,239L233,245L209,245ZM239,239L257,239L257,245L239,245ZM263,239L269,239L269,245L263,245ZM287,239L293,239L293,245L287,245ZM299,239L311,239L311,245L299,245ZM323,239L329,239L329,245L323,245ZM11,245L23,245L23,251L11,251ZM29,245L41,245L41,251L29,251ZM53,245L59,245L59,251L53,251ZM89,245L107,245L107,251L89,251ZM113,245L119,245L119,251L113,251ZM155,245L167,245L167,251L155,251ZM173,245L179,245L179,251L173,251ZM221,245L233,245L233,251L221,251ZM245,245L251,245L251,251L245,251ZM275,245L293,245L293,251L275,251ZM323,245L329,245L329,251L323,251ZM23,251L77,251L77,257L23,257ZM113,251L119,251L119,257L113,257ZM125,251L131,251L131,257L125,257ZM137,251L143,251L143,257L137,257ZM167,251L185,251L185,257L167,257ZM197,251L209,251L209,257L197,257ZM215,251L245,251L245,257L215,257ZM263,251L269,251L269,257L263,257ZM275,251L287,251L287,257L275,257ZM293,251L311,251L311,257L293,257ZM29,257L47,257L47,263L29,263ZM53,257L71,257L71,263L53,263ZM89,257L101,257L101,263L89,263ZM107,257L119,257L119,263L107,263ZM125,257L131,257L131,263L125,263ZM137,257L143,257L143,263L137,263ZM155,257L161,257L161,263L155,263ZM185,257L203,257L203,263L185,263ZM209,257L215,257L215,263L209,263ZM257,257L263,257L263,263L257,263ZM269,257L275,257L275,263L269,263ZM281,257L287,257L287,263L281,263ZM299,257L323,257L323,263L299,263ZM11,263L23,263L23,269L11,269ZM29,263L53,263L53,269L29,269ZM65,263L77,263L77,269L65,269ZM83,263L95,263L95,269L83,269ZM119,263L125,263L125,269L119,269ZM131,263L179,263L179,269L131,269ZM185,263L191,263L191,269L185,269ZM197,263L257,263L257,269L197,269ZM281,263L311,263L311,269L281,269ZM317,263L329,263L329,269L317,269ZM17,269L29,269L29,275L17,275ZM53,269L59,269L59,275L53,275ZM71,269L89,269L89,275L71,275ZM95,269L101,269L101,275L95,275ZM113,269L125,269L125,275L113,275ZM137,269L179,269L179,275L137,275ZM203,269L209,269L209,275L203,275ZM215,269L221,269L221,275L215,275ZM233,269L239,269L239,275L233,275ZM251,269L257,269L257,275L251,275ZM287,269L293,269L293,275L287,275ZM311,269L323,269L323,275L311,275ZM29,275L35,275L35,281L29,281ZM47,275L53,275L53,281L47,281ZM83,275L89,275L89,281L83,281ZM101,275L119,275L119,281L101,281ZM125,275L191,275L191,281L125,281ZM209,275L221,275L221,281L209,281ZM233,275L245,275L245,281L233,281ZM257,275L263,275L263,281L257,281ZM269,275L317,275L317,281L269,281ZM59,281L77,281L77,287L59,287ZM83,281L89,281L89,287L83,287ZM95,281L107,281L107,287L95,287ZM119,281L137,281L137,287L119,287ZM149,281L161,281L161,287L149,287ZM179,281L185,281L185,287L179,287ZM221,281L227,281L227,287L221,287ZM245,281L263,281L263,287L245,287ZM269,281L281,281L281,287L269,287ZM299,281L305,281L305,287L299,287ZM317,281L329,281L329,287L317,287ZM11,287L53,287L53,293L11,293ZM59,287L71,287L71,293L59,293ZM83,287L89,287L89,293L83,293ZM101,287L113,287L113,293L101,293ZM119,287L125,287L125,293L119,293ZM137,287L143,287L143,293L137,293ZM149,287L161,287L161,293L149,293ZM167,287L173,287L173,293L167,293ZM179,287L197,287L197,293L179,293ZM203,287L221,287L221,293L203,293ZM227,287L251,287L251,293L227,293ZM257,287L281,287L281,293L257,293ZM287,287L293,287L293,293L287,293ZM299,287L317,287L317,293L299,293ZM11,293L17,293L17,299L11,299ZM47,293L53,293L53,299L47,299ZM65,293L71,293L71,299L65,299ZM83,293L107,293L107,299L83,299ZM125,293L143,293L143,299L125,299ZM149,293L161,293L161,299L149,299ZM179,293L191,293L191,299L179,299ZM203,293L209,293L209,299L203,299ZM239,293L263,293L263,299L239,299ZM275,293L281,293L281,299L275,299ZM299,293L317,293L317,299L299,299ZM323,293L329,293L329,299L323,299ZM11,299L17,299L17,305L11,305ZM23,299L41,299L41,305L23,305ZM47,299L53,299L53,305L47,305ZM65,299L77,299L77,305L65,305ZM83,299L101,299L101,305L83,305ZM107,299L113,299L113,305L107,305ZM125,299L143,299L143,305L125,305ZM149,299L191,299L191,305L149,305ZM197,299L203,299L203,305L197,305ZM209,299L215,299L215,305L209,305ZM221,299L233,299L233,305L221,305ZM263,299L269,299L269,305L263,305ZM275,299L311,299L311,305L275,305ZM323,299L329,299L329,305L323,305ZM11,305L17,305L17,311L11,311ZM23,305L41,305L41,311L23,311ZM47,305L53,305L53,311L47,311ZM59,305L65,305L65,311L59,311ZM83,305L89,305L89,311L83,311ZM95,305L143,305L143,311L95,311ZM149,305L167,305L167,311L149,311ZM203,305L239,305L239,311L203,311ZM263,305L269,305L269,311L263,311ZM275,305L281,305L281,311L275,311ZM287,305L293,305L293,311L287,311ZM305,305L311,305L311,311L305,311ZM323,305L329,305L329,311L323,311ZM11,311L17,311L17,317L11,317ZM23,311L41,311L41,317L23,317ZM47,311L53,311L53,317L47,317ZM71,311L89,311L89,317L71,317ZM107,311L125,311L125,317L107,317ZM137,311L149,311L149,317L137,317ZM155,311L167,311L167,317L155,317ZM179,311L185,311L185,317L179,317ZM197,311L203,311L203,317L197,317ZM227,311L239,311L239,317L227,317ZM251,311L263,311L263,317L251,317ZM281,311L311,311L311,317L281,317ZM323,311L329,311L329,317L323,317ZM11,317L17,317L17,323L11,323ZM47,317L53,317L53,323L47,323ZM59,317L65,317L65,323L59,323ZM83,317L95,317L95,323L83,323ZM101,317L107,317L107,323L101,323ZM119,317L131,317L131,323L119,323ZM137,317L143,317L143,323L137,323ZM149,317L167,317L167,323L149,323ZM203,317L209,317L209,323L203,323ZM221,317L233,317L233,323L221,323ZM251,317L257,317L257,323L251,323ZM281,317L287,317L287,323L281,323ZM293,317L299,317L299,323L293,323ZM323,317L329,317L329,323L323,323ZM11,323L53,323L53,329L11,329ZM59,323L71,323L71,329L59,329ZM77,323L89,323L89,329L77,329ZM95,323L101,323L101,329L95,329ZM107,323L113,323L113,329L107,329ZM119,323L149,323L149,329L119,329ZM173,323L185,323L185,329L173,329ZM221,323L227,323L227,329L221,329ZM233,323L239,323L239,329L233,329ZM275,323L323,323L323,329L275,329Z"/></svg>
